<svg xmlns="http://www.w3.org/2000/svg" viewBox="0 0 100 100" width="100" height="100">
  <rect width="100" height="100" fill="#0a0f24" rx="10"/>

  <circle cx="50" cy="50" r="42" fill="none" stroke="#0052cc" stroke-width="1" stroke-dasharray="10, 15" opacity="0.5"/>
  <path d="M 15 50 A 35 35 0 0 0 85 50" fill="none" stroke="#00bfff" stroke-width="1.5" stroke-linecap="round"/>

  <path d="M 28 28 L 20 28 L 20 36 M 72 28 L 80 28 L 80 36 M 20 64 L 20 72 L 28 72 M 80 64 L 80 72 L 72 72" fill="none" stroke="#00bfff" stroke-width="3" stroke-linecap="round" stroke-linejoin="round"/>

  <path d="M 35 44 C 33 28, 67 28, 65 44 C 65 52, 60 58, 58 64 L 42 64 C 40 58, 35 52, 35 44 Z" fill="none" stroke="#00f3ff" stroke-width="2.5" stroke-linecap="round" stroke-linejoin="round"/>
  <path d="M 45 64 L 45 70 L 30 76 M 55 64 L 55 70 L 70 76" fill="none" stroke="#00f3ff" stroke-width="2.5" stroke-linecap="round" stroke-linejoin="round"/>

  <line x1="36" y1="38" x2="64" y2="38" stroke="#00f3ff" stroke-width="1.5" stroke-dasharray="1, 3" opacity="0.8"/>
  <line x1="34" y1="46" x2="66" y2="46" stroke="#00f3ff" stroke-width="2" stroke-linecap="round"/>
  <line x1="36" y1="54" x2="64" y2="54" stroke="#00f3ff" stroke-width="1.5" stroke-dasharray="1, 3" opacity="0.8"/>
  <line x1="40" y1="60" x2="60" y2="60" stroke="#00f3ff" stroke-width="2" stroke-linecap="round"/>
</svg>
